<svg id="Group_3" data-name="Group 3" xmlns="http://www.w3.org/2000/svg" width="12" height="56" viewBox="0 0 12 56">
  <path id="_" data-name="" d="M11.8,12l.2-.2A8.35,8.35,0,0,1,12,.192h0L11.8,0A8.274,8.274,0,0,1,6,2.346,8.313,8.313,0,0,1,.192,0h0L0,.192a8.326,8.326,0,0,1,2.346,5.8A8.287,8.287,0,0,1,0,11.8H0l.192.2A8.35,8.35,0,0,1,11.8,12Z" transform="translate(0 44)" fill="#d9d9d9"/>
  <path id="_copy" data-name=" copy" d="M11.8,12l.2-.2A8.35,8.35,0,0,1,12,.192h0L11.8,0A8.274,8.274,0,0,1,6,2.346,8.313,8.313,0,0,1,.192,0h0L0,.192a8.326,8.326,0,0,1,2.346,5.8A8.287,8.287,0,0,1,0,11.8H0l.192.2A8.35,8.35,0,0,1,11.8,12Z" transform="translate(0 22)" fill="#d9d9d9"/>
  <path id="_copy_2" data-name=" copy 2" d="M11.8,12l.2-.2A8.35,8.35,0,0,1,12,.192h0L11.8,0A8.274,8.274,0,0,1,6,2.346,8.313,8.313,0,0,1,.192,0h0L0,.192a8.326,8.326,0,0,1,2.346,5.8A8.287,8.287,0,0,1,0,11.8H0l.192.2A8.35,8.35,0,0,1,11.8,12Z" fill="#d9d9d9"/>
</svg>
