<svg id="Brand_Logotype_Copy" data-name="Brand / Logotype Copy" xmlns="http://www.w3.org/2000/svg" width="120" height="11" viewBox="0 0 120 11">
  <path id="Fill_1" data-name="Fill 1" d="M26.941,0H25.783l-11.8,9.523L2.224,0H0V11H1.78V1.871L12.825,11h2.356L26.207,1.877V11h1.78V.407L28,.394h-.013V0Z" fill="#d9d9d9"/>
  <path id="Fill_2" data-name="Fill 2" d="M18.271,0,12.439,4.634H8.561L2.729,0H0L6.915,5.5,0,11H2.729L8.58,6.347h3.84L18.271,11H21L14.085,5.5,21,0Z" transform="translate(38)" fill="#d9d9d9"/>
  <path id="Fill_3" data-name="Fill 3" d="M17.3,0,10.935,4.653h-9.2V0H0V11H1.735V6.36h9.226V6.353L17.3,11H20L12.581,5.5,20,0Z" transform="translate(100)" fill="#d9d9d9"/>
  <path id="Fill_4" data-name="Fill 4" d="M16.868,4.67H3.19a1.479,1.479,0,0,1,0-2.957H19.753V0H3.19a3.191,3.191,0,0,0,0,6.383H16.842a1.453,1.453,0,0,1,0,2.9H.247V11H16.868a3.165,3.165,0,0,0,0-6.33" transform="translate(69)" fill="#d9d9d9"/>
</svg>
