<?xml version="1.0" encoding="UTF-8"?>
<svg width="22px" height="19px" viewBox="0 0 22 19" version="1.1" xmlns="http://www.w3.org/2000/svg" xmlns:xlink="http://www.w3.org/1999/xlink">
    <title>Icon/5. Social/Twitter</title>
    <g id="Symbols" stroke="none" stroke-width="1" fill="none" fill-rule="evenodd" stroke-linecap="round">
        <g id="Navigation" transform="translate(-343.000000, -313.000000)" fill="#212121" fill-rule="nonzero">
            <g id="Group-2" transform="translate(330.000000, 297.000000)">
                <g id="twitter-brands" transform="translate(14.000000, 17.000000)">
                    <path d="M17.9442107,4.04821894 C17.9569061,4.22587588 17.9569061,4.40357189 17.9569061,4.58122883 C17.9569061,10 13.832554,16.2436963 6.29443865,16.2436963 C3.97208583,16.2436963 1.81473365,15.5710764 0,14.403611 C0.329962226,14.441658 0.647190028,14.4543533 0.989847617,14.4543533 C2.90606604,14.4543533 4.6700573,13.8071633 6.07869562,12.7030965 C4.27665733,12.6650104 2.76649518,11.4848105 2.24618065,9.86042914 C2.5,9.89847617 2.75379982,9.92386689 3.0203243,9.92386689 C3.38833355,9.92386689 3.75638186,9.87308544 4.09900039,9.78429603 C2.22082899,9.40355236 0.81215161,7.75381935 0.81215161,5.76142876 L0.81215161,5.71068637 C1.3578178,6.01525787 1.9923906,6.20561018 2.66493228,6.23096184 C1.56086547,5.49490428 0.837542334,4.23857124 0.837542334,2.81723757 C0.837542334,2.05582834 1.04055094,1.35785687 1.39590389,0.748713862 C3.41368521,3.23602827 6.44670487,4.86037055 9.84769472,5.03806655 C9.78425697,4.73349505 9.74617088,4.41626725 9.74617088,4.09900039 C9.74617088,1.84008531 11.5735999,0 13.8451713,0 C15.0253712,0 16.0913519,0.494923808 16.8401048,1.29441912 C17.7664757,1.11676217 18.6547994,0.774104586 19.4416384,0.304571502 C19.1370279,1.2563721 18.4898379,2.05586741 17.6396002,2.56344751 C18.4644862,2.4746581 19.2639815,2.24618065 20,1.92895285 C19.4417166,2.74110446 18.743706,3.4644276 17.9442107,4.04821894 Z" id="Path"></path>
                </g>
            </g>
        </g>
    </g>
</svg>