<?xml version="1.0" encoding="UTF-8"?>
<svg width="22px" height="22px" viewBox="0 0 22 22" version="1.1" xmlns="http://www.w3.org/2000/svg" xmlns:xlink="http://www.w3.org/1999/xlink">
    <title>Icon/5. Social/Instagram</title>
    <g id="Symbols" stroke="none" stroke-width="1" fill="none" fill-rule="evenodd" stroke-linecap="round">
        <g id="Navigation" transform="translate(-295.000000, -312.000000)" fill="#212121" fill-rule="nonzero">
            <g id="Group" transform="translate(282.000000, 297.000000)">
                <g id="instagram-brands" transform="translate(14.000000, 16.000000)">
                    <path d="M10.0022309,4.87116564 C7.16452872,4.87116564 4.87562744,7.16006693 4.87562744,9.9977691 C4.87562744,12.8354713 7.16452872,15.1243726 10.0022309,15.1243726 C12.8399331,15.1243726 15.1288344,12.8354713 15.1288344,9.9977691 C15.1288344,7.16006693 12.8399331,4.87116564 10.0022309,4.87116564 Z M10.0022309,13.3307306 C8.16843279,13.3307306 6.66926938,11.836029 6.66926938,9.9977691 C6.66926938,8.1595092 8.163971,6.66480759 10.0022309,6.66480759 C11.8404908,6.66480759 13.3351924,8.1595092 13.3351924,9.9977691 C13.3351924,11.836029 11.836029,13.3307306 10.0022309,13.3307306 L10.0022309,13.3307306 Z M16.5343001,4.66146124 C16.5343001,5.32626882 15.9988846,5.85722253 15.3385388,5.85722253 C14.6737312,5.85722253 14.1427775,5.32180703 14.1427775,4.66146124 C14.1427775,4.00111545 14.678193,3.46569994 15.3385388,3.46569994 C15.9988846,3.46569994 16.5343001,4.00111545 16.5343001,4.66146124 Z M19.9297267,5.87506972 C19.8538762,4.273285 19.4880089,2.85443391 18.3145566,1.68544339 C17.1455661,0.516452872 15.726715,0.150585611 14.1249303,0.070273285 C12.4740658,-0.0234244283 7.52593419,-0.0234244283 5.87506972,0.070273285 C4.27774679,0.146123815 2.85889571,0.511991076 1.68544339,1.6809816 C0.511991076,2.84997211 0.150585611,4.2688232 0.070273285,5.87060792 C-0.0234244283,7.52147239 -0.0234244283,12.469604 0.070273285,14.1204685 C0.146123815,15.7222532 0.511991076,17.1411043 1.68544339,18.3100948 C2.85889571,19.4790853 4.273285,19.8449526 5.87506972,19.9252649 C7.52593419,20.0189626 12.4740658,20.0189626 14.1249303,19.9252649 C15.726715,19.8494144 17.1455661,19.4835471 18.3145566,18.3100948 C19.4835471,17.1411043 19.8494144,15.7222532 19.9297267,14.1204685 C20.0234244,12.469604 20.0234244,7.52593419 19.9297267,5.87506972 Z M17.7969883,15.8918015 C17.4489682,16.7663134 16.775237,17.4400446 15.8962632,17.7925265 C14.5800335,18.3145566 11.4567764,18.1940881 10.0022309,18.1940881 C8.54768544,18.1940881 5.41996654,18.3100948 4.10819855,17.7925265 C3.23368656,17.4445064 2.55995538,16.7707752 2.20747351,15.8918015 C1.68544339,14.5755717 1.80591188,11.4523146 1.80591188,9.9977691 C1.80591188,8.54322365 1.68990519,5.41550474 2.20747351,4.10373675 C2.55549359,3.22922476 3.22922476,2.55549359 4.10819855,2.20301171 C5.42442833,1.6809816 8.54768544,1.80145008 10.0022309,1.80145008 C11.4567764,1.80145008 14.5844953,1.68544339 15.8962632,2.20301171 C16.7707752,2.55103179 17.4445064,3.22476297 17.7969883,4.10373675 C18.3190184,5.41996654 18.1985499,8.54322365 18.1985499,9.9977691 C18.1985499,11.4523146 18.3190184,14.5800335 17.7969883,15.8918015 Z" id="Shape"></path>
                </g>
            </g>
        </g>
    </g>
</svg>