<svg xmlns="http://www.w3.org/2000/svg" width="30" height="29" viewBox="0 0 30 29">
  <g id="Group_9" data-name="Group 9" transform="translate(0.734 -0.07)">
    <path id="Path" d="M7.983,14V8.608l5,2.705L14,9.686,9,7l5-2.686L12.987,2.686l-5,2.686V0H6V5.373l-5-2.686L0,4.314,4.984,7,0,9.686l.993,1.627L6,8.608V14Z" transform="translate(7.266 0.07)" fill="#828282"/>
    <path id="Path-2" data-name="Path" d="M8,14V8.608l4.984,2.705L14,9.686,9,7l5-2.686L12.987,2.686,8,5.392V0H6V5.392l-5-2.705L0,4.314,5,7,0,9.686l.993,1.627L6,8.608V14Z" transform="translate(-0.734 15.07)" fill="#828282"/>
    <path id="Path-3" data-name="Path" d="M8,14V8.608l5,2.705L14,9.686,9,7l5-2.686-.993-1.627L8,5.392V0H6.017V5.392l-5-2.705L0,4.314,5,7,0,9.686l1.013,1.627,5-2.705V14Z" transform="translate(15.266 15.07)" fill="#828282"/>
  </g>
</svg>
