<svg id="Brand_Symbol" data-name="Brand / Symbol" xmlns="http://www.w3.org/2000/svg" width="78" height="59" viewBox="0 0 78 59">
  <path id="Fill_1" data-name="Fill 1" d="M62,0,59.433,8.25,31,28.779,2.56,8.25,0,0V10.547L30.985,29.992V30h.03v-.008L62,10.547Z" transform="translate(8)" fill="#d9d9d9"/>
  <path id="Fill_2" data-name="Fill 2" d="M31,.008,30.985,0V.015L0,19.463V30l2.56-8.248L31,1.221,59.433,21.752,62,30V19.463L31.015.015V0Z" transform="translate(8 29)" fill="#d9d9d9"/>
  <path id="Fill_3" data-name="Fill 3" d="M0,10.358v.965L35.221,4.808,32.882,26,39,0Z" transform="translate(39 19)" fill="#d9d9d9"/>
  <path id="Fill_4" data-name="Fill 4" d="M6.116,26,3.793,4.808,39,11.323v-.965L0,0Z" transform="translate(0 19)" fill="#d9d9d9"/>
</svg>
